<svg width="153" height="149" viewBox="0 0 153 149" fill="none" xmlns="http://www.w3.org/2000/svg">
<path d="M131.706 84.748C138.36 82.0905 145.909 85.3304 148.566 91.9844C151.224 98.6382 147.984 106.186 141.33 108.844L53.376 143.973C46.7221 146.63 39.1733 143.391 36.5156 136.737C33.858 130.083 37.098 122.535 43.752 119.877L131.706 84.748ZM79.3125 59.1074C85.9664 56.4499 93.5152 59.6899 96.1729 66.3438C98.8304 72.9977 95.5905 80.5465 88.9365 83.2041L37.3369 103.812C30.683 106.47 23.1342 103.231 20.4766 96.5771C17.819 89.9232 21.059 82.3744 27.7129 79.7168L79.3125 59.1074ZM116.342 44.3027C122.623 41.7941 129.749 44.8527 132.258 51.1338L132.797 52.4834C135.306 58.7645 132.247 65.8908 125.966 68.3994C119.685 70.9077 112.559 67.8493 110.051 61.5684L109.512 60.2178C107.003 53.9369 110.061 46.8115 116.342 44.3027ZM99.6201 4.42969C106.274 1.77211 113.823 5.01208 116.48 11.666C119.138 18.3199 115.898 25.8678 109.244 28.5254L21.29 63.6543C14.6362 66.3119 7.08732 63.0728 4.42969 56.4189C1.77211 49.765 5.01208 42.2162 11.666 39.5586L99.6201 4.42969Z" stroke="#2B4B67" stroke-width="7"/>
</svg>
