<svg width="153" height="149" viewBox="0 0 153 149" fill="none" xmlns="http://www.w3.org/2000/svg">
<path d="M1.17945 57.7169C-2.19509 49.2678 1.91861 39.6829 10.3677 36.3084L98.3221 1.17945C106.771 -2.19509 116.356 1.91861 119.731 10.3677C123.105 18.8167 118.991 28.4016 110.542 31.7762L22.588 66.9051C14.1389 70.2796 4.55399 66.1659 1.17945 57.7169Z" fill="#ED6D5F"/>
<path d="M17.2263 97.8751C13.8518 89.426 17.9655 79.8411 26.4145 76.4666L78.0147 55.8575C86.4638 52.483 96.0487 56.5967 99.4232 65.0457C102.798 73.4948 98.6841 83.0797 90.235 86.4542L38.6348 107.063C30.1858 110.438 20.6009 106.324 17.2263 97.8751Z" fill="#ED6D5F"/>
<path d="M106.261 61.5164C103.036 53.4402 106.968 44.2783 115.044 41.0526C123.12 37.827 132.282 41.7592 135.508 49.8354L136.047 51.1856C139.273 59.2618 135.341 68.4237 127.264 71.6494C119.188 74.875 110.026 70.9428 106.801 62.8666L106.261 61.5164Z" fill="#ED6D5F"/>
<path d="M33.2654 138.035C29.8908 129.586 34.0045 120.001 42.4536 116.627L130.408 81.4978C138.857 78.1233 148.442 82.237 151.817 90.686C155.191 99.1351 151.077 108.72 142.628 112.095L54.6739 147.223C46.2249 150.598 36.6399 146.484 33.2654 138.035Z" fill="#ED6D5F"/>
<path d="M130.965 82.8906C138.644 79.8237 147.357 83.5627 150.424 91.2422C153.491 98.9218 149.752 107.634 142.072 110.701L54.1172 145.83C46.4375 148.897 37.7254 145.158 34.6582 137.479C31.5912 129.799 35.3302 121.087 43.0098 118.02L130.965 82.8906ZM78.5713 57.251C86.251 54.1837 94.963 57.9228 98.0303 65.6025C101.097 73.2822 97.3583 81.9943 89.6787 85.0615L38.0781 105.67C30.3984 108.737 21.6864 104.998 18.6191 97.3184C15.5522 89.6388 19.2912 80.9266 26.9707 77.8594L78.5713 57.251ZM115.601 42.4453C122.907 39.5271 131.197 43.0848 134.115 50.3916L134.654 51.7422C137.572 59.049 134.015 67.3385 126.708 70.2568C119.401 73.175 111.112 69.6172 108.193 62.3105L107.654 60.96C104.736 53.6531 108.294 45.3637 115.601 42.4453ZM98.8789 2.57227C106.558 -0.494677 115.271 3.24431 118.338 10.9238C121.405 18.6034 117.666 27.3154 109.986 30.3828L22.0312 65.5117C14.3516 68.5789 5.63951 64.8398 2.57227 57.1602C-0.494715 49.4806 3.2443 40.7684 10.9238 37.7012L98.8789 2.57227Z" stroke="black" stroke-opacity="0.17" stroke-width="3"/>
</svg>
