<svg width="153" height="149" viewBox="0 0 153 149" fill="none" xmlns="http://www.w3.org/2000/svg">
<path d="M1.17945 57.7169C-2.19509 49.2678 1.91861 39.6829 10.3677 36.3084L98.3221 1.17945C106.771 -2.19509 116.356 1.91861 119.731 10.3677C123.105 18.8167 118.991 28.4016 110.542 31.7762L22.588 66.9051C14.1389 70.2796 4.55399 66.1659 1.17945 57.7169Z" fill="#2B4B67"/>
<path d="M17.2263 97.8751C13.8518 89.426 17.9655 79.8411 26.4145 76.4666L78.0147 55.8575C86.4638 52.483 96.0487 56.5967 99.4232 65.0457C102.798 73.4948 98.6841 83.0797 90.235 86.4542L38.6348 107.063C30.1858 110.438 20.6009 106.324 17.2263 97.8751Z" fill="#2B4B67"/>
<path d="M106.261 61.5164C103.036 53.4402 106.968 44.2783 115.044 41.0526C123.12 37.827 132.282 41.7592 135.508 49.8354L136.047 51.1856C139.273 59.2618 135.341 68.4237 127.264 71.6494C119.188 74.875 110.026 70.9428 106.801 62.8666L106.261 61.5164Z" fill="#2B4B67"/>
<path d="M33.2654 138.035C29.8908 129.586 34.0045 120.001 42.4536 116.627L130.408 81.4978C138.857 78.1233 148.442 82.237 151.817 90.686C155.191 99.1351 151.077 108.72 142.628 112.095L54.6739 147.223C46.2249 150.598 36.6399 146.484 33.2654 138.035Z" fill="#2B4B67"/>
</svg>
