<svg width="818" height="818" viewBox="0 0 818 818" fill="none" xmlns="http://www.w3.org/2000/svg">
<path d="M817.568 408.784C817.568 634.549 634.549 817.568 408.784 817.568C183.019 817.568 0 634.549 0 408.784C0 183.019 183.019 0 408.784 0C634.549 0 817.568 183.019 817.568 408.784Z" fill="#ED6D5F"/>
<path d="M130.687 348.546C118.226 317.348 133.416 281.955 164.615 269.495L489.389 139.78C520.587 127.32 555.98 142.51 568.44 173.708C580.901 204.906 565.711 240.299 534.513 252.759L209.739 382.474C178.54 394.935 143.148 379.745 130.687 348.546Z" fill="white"/>
<path d="M189.937 496.831C177.476 465.633 192.666 430.24 223.865 417.78L414.4 341.68C445.598 329.22 480.991 344.41 493.451 375.608C505.912 406.806 490.722 442.199 459.524 454.66L268.988 530.759C237.79 543.22 202.398 528.03 189.937 496.831Z" fill="white"/>
<path d="M518.699 362.575C506.788 332.753 521.308 298.923 551.13 287.012C580.951 275.101 614.782 289.621 626.693 319.442L628.684 324.428C640.595 354.25 626.075 388.08 596.253 399.991C566.432 411.902 532.601 397.382 520.69 367.561L518.699 362.575Z" fill="white"/>
<path d="M249.163 645.122C236.703 613.924 251.893 578.532 283.091 566.071L607.865 436.356C639.064 423.896 674.456 439.086 686.917 470.284C699.378 501.482 684.188 536.875 652.989 549.336L328.215 679.05C297.017 691.511 261.624 676.321 249.163 645.122Z" fill="white"/>
</svg>
