<svg width="153" height="149" viewBox="0 0 153 149" fill="none" xmlns="http://www.w3.org/2000/svg">
<path d="M1.17945 57.7169C-2.19509 49.2678 1.91861 39.6829 10.3677 36.3084L98.3221 1.17945C106.771 -2.19509 116.356 1.91861 119.731 10.3677C123.105 18.8167 118.991 28.4016 110.542 31.7762L22.588 66.9051C14.1389 70.2796 4.55399 66.1659 1.17945 57.7169Z" fill="#FFB500"/>
<path d="M17.2263 97.8751C13.8518 89.426 17.9655 79.8411 26.4145 76.4666L78.0147 55.8575C86.4638 52.483 96.0487 56.5967 99.4232 65.0457C102.798 73.4948 98.6841 83.0797 90.235 86.4542L38.6348 107.063C30.1858 110.438 20.6009 106.324 17.2263 97.8751Z" fill="#FFB500"/>
<path d="M106.261 61.5164C103.036 53.4402 106.968 44.2783 115.044 41.0526C123.12 37.827 132.282 41.7592 135.508 49.8354L136.047 51.1856C139.273 59.2618 135.341 68.4237 127.264 71.6494C119.188 74.875 110.026 70.9428 106.801 62.8666L106.261 61.5164Z" fill="#FFB500"/>
<path d="M33.2654 138.035C29.8908 129.586 34.0045 120.001 42.4536 116.627L130.408 81.4978C138.857 78.1233 148.442 82.237 151.817 90.686C155.191 99.1351 151.077 108.72 142.628 112.095L54.6739 147.223C46.2249 150.598 36.6399 146.484 33.2654 138.035Z" fill="#FFB500"/>
<path d="M131.149 83.3555C138.573 80.3906 146.994 84.0046 149.959 91.4277C152.924 98.851 149.31 107.272 141.887 110.237L53.9316 145.366C46.5085 148.331 38.0878 144.716 35.123 137.293C32.1584 129.87 35.7723 121.449 43.1953 118.484L131.149 83.3555ZM78.7568 57.7148C86.1799 54.7503 94.6004 58.3643 97.5654 65.7871C100.53 73.2104 96.9164 81.6318 89.4932 84.5967L37.8926 105.206C30.4694 108.171 22.0488 104.556 19.084 97.1328C16.1194 89.7097 19.7332 81.2891 27.1562 78.3242L78.7568 57.7148ZM115.786 42.9102C122.836 40.0943 130.834 43.5268 133.65 50.5771L134.189 51.9277C137.005 58.9781 133.573 66.9761 126.522 69.792C119.472 72.6078 111.474 69.1752 108.658 62.125L108.119 60.7744C105.303 53.724 108.736 45.7261 115.786 42.9102ZM99.0635 3.03711C106.487 0.0722836 114.908 3.68622 117.873 11.1094C120.838 18.5326 117.224 26.9541 109.801 29.9189L21.8457 65.0479C14.4225 68.0124 6.0019 64.3977 3.03711 56.9746C0.0724962 49.5515 3.68633 41.1309 11.1094 38.166L99.0635 3.03711Z" stroke="black" stroke-opacity="0.17" stroke-width="4"/>
</svg>
